<?xml version="1.0" encoding="UTF-8"?>
<svg id="Layer_1" data-name="Layer 1" xmlns="http://www.w3.org/2000/svg" viewBox="0 0 2659.92 1752">
  <defs>
    <style>
      .cls-1, .cls-2, .cls-3, .cls-4 {
        stroke-width: 0px;
      }

      .cls-2 {
        fill: #660708;
      }

      .cls-3 {
        fill: #03045e;
      }

      .cls-4 {
        fill: #0077b6;
      }
    </style>
  </defs>
  <g id="Layer_5" data-name="Layer 5">
    <polygon class="cls-2" points="1282.05 549.76 1322.64 525.79 889.49 255.07 415.08 534.18 863.46 790.06 904.99 765.59 497.81 533.48 887.71 303 1282.05 549.76"/>
    <path class="cls-3" d="m407.42,556.9l-7.8,551.61,41.3,24.78,2.75-217.07,374.47,214.77-.13,231.5,38.93,23.53,3.71-570.97-453.23-258.15Zm411.64,525.92l-374.35-214.27,3.09-240.05,372.18,213.85-.92,240.47Z"/>
    <polygon class="cls-4" points="882.94 815.03 882.91 863.53 1092.95 741.5 1087.74 1215.76 879.62 1332.5 879.01 1380.48 1323.92 1132.46 1324.45 1085.13 1130.78 1193.51 1135.99 714.83 1327.88 602.99 1327.65 554.71 882.94 815.03"/>
  </g>
  <g>
    <path class="cls-1" d="m1397.78,897.52c0-53.39,41.78-93.17,95.57-93.17,32.17,0,64.34,17.62,80.89,45.25l-33.77,24.96c-11.08-16.82-24.83-29.1-47.12-29.1-30.57,0-50.59,21.89-50.59,52.06s20.02,52.33,50.59,52.33c20.16,0,35.37-9.88,47.92-28.83l33.64,24.56c-17.22,28.57-47.25,45.38-81.56,45.38-53.79,0-95.57-40.04-95.57-93.44Z"/>
    <path class="cls-1" d="m1657.95,857.47c39.64,0,68.88,28.57,68.88,66.74s-29.23,66.74-68.88,66.74-68.88-28.57-68.88-66.74,29.23-66.74,68.88-66.74Zm0,95.17c16.02,0,27.23-12.15,27.23-28.43s-11.21-28.03-27.23-28.03-27.23,12.15-27.23,28.03,11.21,28.43,27.23,28.43Z"/>
    <path class="cls-1" d="m1770.61,991.62c11.88,11.48,23.49,16.69,39.38,16.69,14.28,0,33.1-7.21,33.1-26.3v-7.21c-7.34,9.08-19.76,16.15-37.78,16.15-34.17,0-59.27-28.3-59.27-66.61s25.09-66.88,59.27-66.88c18.02,0,30.43,7.21,37.78,16.15l1.33-13.48h40.71v123.61c0,42.31-38.84,60.6-74.62,60.6-27.76,0-50.46-10.81-64.87-27.76l24.96-24.96Zm17.09-67.28c0,17.35,11.35,29.5,27.63,29.5s27.63-12.15,27.63-29.5-11.35-29.37-27.63-29.5c-16.29,0-27.63,12.15-27.63,29.5Z"/>
    <path class="cls-1" d="m1917.99,988.29v-128.14h38.58l1.33,13.48c9.08-11.48,24.56-16.15,39.64-16.15,24.16,0,47.39,16.95,47.39,47.52v83.29h-42.05v-71.28c0-14.28-11.35-21.09-21.49-21.09s-21.36,6.81-21.36,21.09v71.28h-42.05Z"/>
    <path class="cls-1" d="m2097,797.67c13.62,0,23.23,9.34,23.23,23.09s-9.61,22.96-23.23,22.96-22.96-9.34-22.96-22.96,9.34-23.09,22.96-23.09Zm21.76,62.47v128.14h-42.05v-128.14h42.05Z"/>
    <path class="cls-1" d="m2140.65,860.14h20.42v-41.11h40.71v41.11h38.84v34.31h-37.51v41.38c0,13.88,7.88,18.15,18.95,18.15,6.14,0,14.28-1.87,20.69-4.41l2.94,34.17c-8.28,4.27-22.02,7.21-34.04,7.21-29.37,0-50.59-14.15-50.59-48.32v-48.19h-20.42v-34.31Z"/>
    <path class="cls-1" d="m2323.39,857.47c39.64,0,68.88,28.57,68.88,66.74s-29.23,66.74-68.88,66.74-68.88-28.57-68.88-66.74,29.23-66.74,68.88-66.74Zm0,95.17c16.02,0,27.23-12.15,27.23-28.43s-11.21-28.03-27.23-28.03-27.23,12.15-27.23,28.03,11.21,28.43,27.23,28.43Z"/>
    <path class="cls-1" d="m2471.03,807.02h52.06l71.68,181.27h-46.99l-12.28-33.24h-76.75l-12.28,33.24h-46.99l71.55-181.27Zm.27,113.86h51.66l-25.76-69.95-25.9,69.95Z"/>
    <path class="cls-1" d="m2659.92,988.29h-43.92v-181.27h43.92v181.27Z"/>
  </g>
</svg>